<svg xmlns="http://www.w3.org/2000/svg" width="45" height="44" viewBox="0 0 45 44" fill="none"><path d="M40.2 17.15L37.7 16L40.2 14.85L41.35 12.35L42.5 14.85L45 16L42.5 17.15L41.35 19.65L40.2 17.15ZM33.25 7.2L29.55 5.45L33.25 3.7L35 0L36.75 3.7L40.45 5.45L36.75 7.2L35 10.9L33.25 7.2ZM15 44C13.8667 44 12.9083 43.6083 12.125 42.825C11.3417 42.0417 10.95 41.0833 10.95 39.95H19.05C19.05 41.0833 18.6583 42.0417 17.875 42.825C17.0917 43.6083 16.1333 44 15 44ZM8.4 36.85C7.96667 36.85 7.60833 36.7083 7.325 36.425C7.04167 36.1417 6.9 35.7833 6.9 35.35C6.9 34.9167 7.04167 34.5583 7.325 34.275C7.60833 33.9917 7.96667 33.85 8.4 33.85H21.6C22.0333 33.85 22.3917 33.9917 22.675 34.275C22.9583 34.5583 23.1 34.9167 23.1 35.35C23.1 35.7833 22.9583 36.1417 22.675 36.425C22.3917 36.7083 22.0333 36.85 21.6 36.85H8.4ZM7.15 30.8C4.95 29.3667 3.20833 27.575 1.925 25.425C0.641667 23.275 0 20.85 0 18.15C0 14.0833 1.48333 10.5667 4.45 7.6C7.41667 4.63333 10.9333 3.15 15 3.15C19.0667 3.15 22.5833 4.63333 25.55 7.6C28.5167 10.5667 30 14.0833 30 18.15C30 20.85 29.3667 23.275 28.1 25.425C26.8333 27.575 25.0833 29.3667 22.85 30.8H7.15Z" fill="#06295B"></path></svg>