<svg xmlns="http://www.w3.org/2000/svg" width="48" height="48" viewBox="0 0 48 48" fill="none"><mask id="mask0_6_7" style="mask-type:luminance" maskUnits="userSpaceOnUse" x="3" y="16" width="26" height="29"><path d="M3 16.7759H28.9819V45H3V16.7759Z" fill="white"></path></mask><g mask="url(#mask0_6_7)"><path d="M15.9944 45.0123C15.782 45.012 15.5696 45.0063 15.3572 44.9946C15.145 44.9833 14.9332 44.9659 14.7218 44.9431C14.5102 44.9201 14.2994 44.8916 14.0893 44.8575C13.879 44.8233 13.6697 44.7835 13.4615 44.7382C13.253 44.693 13.0459 44.6421 12.8398 44.5857C12.6336 44.5294 12.4291 44.4673 12.2258 44.3999C12.0226 44.3327 11.8209 44.2599 11.6208 44.1819C11.421 44.1036 11.2227 44.0203 11.0265 43.9315C10.8303 43.8427 10.6362 43.7488 10.4442 43.6498C10.2522 43.5507 10.0626 43.4466 9.8753 43.3373C9.68801 43.228 9.50334 43.1139 9.32128 42.995C9.13922 42.8757 8.95978 42.7519 8.78321 42.6233C8.60691 42.4944 8.43322 42.3612 8.26268 42.2232C8.09239 42.0852 7.92498 41.9429 7.76097 41.7961C7.59696 41.6492 7.43635 41.4978 7.27915 41.3424C7.12168 41.1871 6.96813 41.0274 6.81825 40.8635C6.6681 40.6999 6.52188 40.5323 6.37958 40.361C6.23702 40.1894 6.09865 40.0141 5.96394 39.8354C5.82948 39.6564 5.69896 39.4739 5.57288 39.2881C5.44654 39.102 5.32438 38.9131 5.20667 38.7207C5.08896 38.5283 4.9757 38.3328 4.86662 38.1342C4.7578 37.9358 4.65343 37.7346 4.55377 37.5306C4.45385 37.3266 4.35864 37.12 4.26813 36.9108C4.17763 36.7016 4.09209 36.4902 4.011 36.2765C3.93017 36.0628 3.85405 35.8471 3.78291 35.6294C3.71176 35.4117 3.64558 35.192 3.58411 34.9706C3.5229 34.7495 3.46666 34.5267 3.41539 34.3021C3.36438 34.0779 3.31834 33.8525 3.27728 33.6257C3.23621 33.3989 3.20037 33.171 3.16951 32.9424C3.1389 32.7137 3.11327 32.4843 3.09313 32.2544C3.07272 32.0241 3.05755 31.7936 3.04761 31.5628C3.03767 31.3321 3.03296 31.101 3.03349 30.8699C3.03401 30.6388 3.0395 30.4078 3.05049 30.177C3.06148 29.9462 3.07769 29.7157 3.09888 29.4858C3.12033 29.2558 3.14675 29.0265 3.17866 28.7979C3.21031 28.5694 3.2472 28.3421 3.28905 28.1153C3.33116 27.8887 3.37825 27.6634 3.4303 27.4394C3.48235 27.2154 3.53964 26.9929 3.60189 26.7718C3.66415 26.551 3.73111 26.3316 3.80331 26.1141C3.8755 25.8967 3.95241 25.6816 4.03428 25.4682C4.11615 25.255 4.20274 25.0439 4.29429 24.8353C4.38558 24.6267 4.48158 24.4204 4.58228 24.2169C4.68299 24.0134 4.78815 23.8128 4.89801 23.6147C5.00761 23.417 5.12192 23.222 5.24041 23.0302C5.35917 22.8384 5.48185 22.65 5.60898 22.4648C5.7361 22.2795 5.86715 22.0977 6.00265 21.9195C6.13788 21.7414 6.27704 21.5667 6.42013 21.3959C6.56347 21.2252 6.71048 21.0584 6.86115 20.8954C7.01181 20.7326 7.16614 20.5738 7.32414 20.419C7.48187 20.2642 7.64326 20.1139 7.80779 19.968C7.97259 19.822 8.14052 19.6803 8.31159 19.5431C8.48266 19.4062 8.65661 19.2736 8.8337 19.1458C9.01079 19.0181 9.19075 18.8951 9.37333 18.777C9.55591 18.6586 9.74111 18.5457 9.92892 18.4372C10.1167 18.3291 10.3066 18.2258 10.4992 18.1276C10.6914 18.0297 10.886 17.9367 11.0827 17.849C11.2792 17.7614 11.4777 17.6789 11.6781 17.6017C11.8785 17.5246 12.0804 17.4529 12.2839 17.3866C12.4874 17.3203 12.6925 17.2594 12.8986 17.2042C13.105 17.1487 13.3124 17.0989 13.5209 17.0548C13.7296 17.0104 13.9389 16.9717 14.1495 16.9387C14.3598 16.9057 14.5706 16.8781 14.7822 16.8564C14.9936 16.8345 15.2057 16.8183 15.4179 16.8078C15.6303 16.7975 15.8427 16.7927 16.0551 16.7936C16.2675 16.7944 16.4799 16.801 16.692 16.8132C16.9044 16.8254 17.116 16.8434 17.3276 16.8667C17.539 16.8903 17.7496 16.9196 17.9596 16.9543C18.1699 16.9891 18.3789 17.0295 18.5871 17.0756C18.7956 17.1217 19.0025 17.1732 19.2084 17.2301C19.4145 17.2873 19.619 17.3496 19.822 17.4176C20.025 17.4856 20.2264 17.5591 20.4263 17.6379C20.6261 17.7167 20.8241 17.8007 21.0201 17.89C21.216 17.9794 21.4098 18.0738 21.6015 18.1734C21.7933 18.2733 21.9827 18.3781 22.1697 18.4879C22.3565 18.5975 22.5409 18.7124 22.7227 18.8319C22.9045 18.9517 23.0836 19.0761 23.2597 19.2053C23.436 19.3345 23.6091 19.4685 23.7792 19.6068C23.9492 19.7454 24.1161 19.8886 24.2798 20.036C24.4436 20.1834 24.6037 20.3351 24.7606 20.491C24.9173 20.6469 25.0706 20.8069 25.2202 20.9711C25.3698 21.1353 25.5155 21.3035 25.6576 21.4753C25.7996 21.6472 25.9374 21.8228 26.0716 22.0024C26.2056 22.1816 26.3356 22.3643 26.4614 22.5507C26.5872 22.7368 26.7086 22.9266 26.8258 23.1193C26.9432 23.312 27.0559 23.5077 27.1642 23.7067C27.2728 23.9056 27.3764 24.1071 27.4758 24.3114C27.5749 24.5157 27.6696 24.7226 27.7596 24.932C27.8496 25.1415 27.9346 25.3532 28.0149 25.5672C28.0955 25.7812 28.1708 25.9969 28.2414 26.2152C28.312 26.4331 28.3777 26.6528 28.4384 26.8742C28.4991 27.0959 28.5548 27.3187 28.6053 27.5433C28.6558 27.7678 28.7013 27.9935 28.7418 28.2203C28.7821 28.4473 28.8174 28.675 28.8475 28.9038C28.8776 29.1326 28.9027 29.3622 28.9223 29.5922C28.9419 29.8224 28.9566 30.0529 28.966 30.2837C28.9751 30.5148 28.9793 30.7458 28.9783 30.9769C28.9767 31.2068 28.9699 31.4371 28.9581 31.6667C28.9461 31.8964 28.9291 32.1257 28.9069 32.3545C28.8846 32.5836 28.8574 32.8115 28.825 33.0392C28.7926 33.2666 28.7552 33.4928 28.7125 33.7185C28.6699 33.9439 28.6223 34.1678 28.5697 34.3909C28.5169 34.6137 28.4593 34.8351 28.3968 35.0548C28.334 35.2748 28.2665 35.4928 28.1943 35.7091C28.1219 35.9253 28.0447 36.1396 27.9626 36.3516C27.8807 36.5639 27.7941 36.7736 27.7026 36.9811C27.6113 37.1888 27.5153 37.3937 27.4146 37.5963C27.3139 37.7987 27.2087 37.9984 27.0991 38.1951C26.9898 38.392 26.8757 38.5858 26.7575 38.7767C26.6393 38.9674 26.5166 39.1552 26.39 39.3393C26.2634 39.5237 26.1326 39.7044 25.9976 39.882C25.8629 40.0593 25.724 40.2329 25.5814 40.4031C25.4389 40.573 25.2927 40.7392 25.1425 40.9014C24.9924 41.0636 24.8388 41.2218 24.6816 41.3757C24.5244 41.53 24.3638 41.6797 24.2 41.8254C24.036 41.9708 23.8689 42.1119 23.6989 42.2485C23.5286 42.3851 23.3554 42.5174 23.1791 42.6446C23.0031 42.7721 22.8242 42.8951 22.6424 43.0129C22.4608 43.131 22.2767 43.244 22.0899 43.3521C21.9031 43.4605 21.714 43.5635 21.5225 43.6617C21.3313 43.7599 21.1378 43.8529 20.9421 43.9409C20.7467 44.0288 20.5492 44.1113 20.3499 44.1887C20.1506 44.2661 19.9499 44.3381 19.7472 44.405C19.5448 44.4716 19.341 44.5331 19.1357 44.5888C18.9303 44.6446 18.7239 44.6953 18.5165 44.74C18.3091 44.7849 18.1006 44.8245 17.8913 44.8583C17.6821 44.8922 17.472 44.9204 17.2615 44.9431C17.0509 44.9659 16.8401 44.983 16.6287 44.9946C16.4173 45.006 16.206 45.012 15.9944 45.0123ZM16.9128 40.4304C16.9128 39.9495 16.9128 39.5055 16.9128 39.0613C16.9128 38.3647 17.0491 38.2352 17.6329 37.97C18.109 37.7913 18.5531 37.5448 18.9654 37.2298C21.4713 35.0161 20.8079 31.5751 18.6366 30.2123C17.9504 29.7806 17.2021 29.4661 16.4932 29.0774C16.0375 28.8412 15.5955 28.578 15.1665 28.2883C15.1168 28.2604 15.0697 28.2282 15.0252 28.1915C14.9805 28.1548 14.9392 28.1144 14.901 28.07C14.8628 28.0253 14.8285 27.9778 14.7979 27.9269C14.7673 27.8759 14.7412 27.8227 14.7189 27.7667C14.697 27.7109 14.6794 27.6534 14.6666 27.5942C14.6535 27.5353 14.6454 27.4753 14.642 27.4146C14.6386 27.354 14.6399 27.2934 14.6462 27.2331C14.6525 27.1725 14.6632 27.1133 14.6789 27.0549C14.6912 26.9929 14.7082 26.9329 14.7294 26.8739C14.7506 26.815 14.7759 26.7584 14.8058 26.7041C14.8353 26.6497 14.8688 26.5982 14.906 26.5495C14.9434 26.5012 14.9839 26.4562 15.0278 26.4146C15.0718 26.3734 15.1184 26.3361 15.1678 26.3028C15.2172 26.2695 15.269 26.2408 15.3226 26.2166C15.3763 26.1924 15.4315 26.173 15.488 26.1585C15.5445 26.1437 15.6017 26.1343 15.6598 26.1298C16.1521 26.0604 16.6444 26.0609 17.1367 26.1321C17.6287 26.2032 18.1043 26.3421 18.5628 26.5493C18.7838 26.6417 18.9994 26.7465 19.2829 26.8759C19.5071 26.4525 19.6748 26.0043 19.7865 25.5311C19.8982 25.0578 19.9494 24.5772 19.9405 24.0886L17.2361 23.2129L17.0491 21.3629H15.0815C15.0244 21.4682 14.9789 21.5792 14.9454 21.6959C14.9185 21.8507 14.9033 22.0069 14.9002 22.1646C14.9002 23.5769 14.9625 23.3979 13.7663 23.9653C13.6962 23.9955 13.6268 24.0279 13.5588 24.0627C13.4906 24.0974 13.4236 24.1347 13.3574 24.1739C13.2915 24.2135 13.2266 24.255 13.1631 24.2989C13.0992 24.3427 13.037 24.3888 12.976 24.4369C12.9151 24.485 12.8557 24.5353 12.7976 24.5874C12.7396 24.6398 12.6831 24.6938 12.6281 24.7499C12.5735 24.806 12.5201 24.864 12.4686 24.9238C12.417 24.9835 12.3673 25.045 12.3192 25.1082C12.2713 25.1711 12.2253 25.236 12.1811 25.3023C12.1369 25.3686 12.0945 25.4363 12.0542 25.5054C12.014 25.5749 11.9758 25.6455 11.9394 25.7172C11.9033 25.7889 11.8693 25.862 11.8371 25.9363C11.8052 26.0103 11.7754 26.0857 11.7479 26.1617C11.7202 26.2379 11.6948 26.315 11.6718 26.393C11.6485 26.471 11.6276 26.5498 11.609 26.6292C11.5905 26.7086 11.5742 26.7883 11.5604 26.8688C11.5465 26.9494 11.5347 27.0305 11.5256 27.1116C11.5162 27.193 11.5094 27.2746 11.5049 27.3563C11.5005 27.438 11.4981 27.5199 11.4984 27.6019C11.4986 27.6838 11.5013 27.7655 11.5062 27.8475C11.5112 27.9291 11.5185 28.0105 11.5282 28.0919C11.5379 28.173 11.5499 28.2538 11.5643 28.3344C11.5787 28.4146 11.5954 28.4946 11.6143 28.574C11.6334 28.6531 11.6545 28.7316 11.6781 28.8096C11.7016 28.8873 11.7275 28.9641 11.7555 29.0404C11.7835 29.1164 11.8138 29.1912 11.846 29.2652C11.8785 29.3392 11.913 29.412 11.9496 29.4838C11.9862 29.5552 12.0247 29.6255 12.0655 29.6946C12.106 29.7635 12.1487 29.8309 12.1934 29.897C12.2379 29.963 12.2844 30.0276 12.3326 30.0905C12.3809 30.1534 12.4312 30.2143 12.483 30.2737C12.5348 30.3332 12.5884 30.3907 12.6436 30.4465C12.9664 30.7618 13.3179 31.033 13.698 31.2606C14.4919 31.6983 15.3198 32.0682 16.1246 32.494C16.3907 32.6183 16.6381 32.7765 16.8675 32.9686C16.9151 33.0053 16.9604 33.0455 17.0028 33.089C17.0454 33.1328 17.0849 33.1792 17.1215 33.229C17.1579 33.2785 17.1911 33.3309 17.2209 33.3855C17.2505 33.4402 17.2766 33.4968 17.2991 33.5557C17.3216 33.6143 17.3402 33.6744 17.3548 33.7358C17.3695 33.7973 17.3802 33.8596 17.3867 33.9228C17.3933 33.986 17.3959 34.0494 17.3943 34.1129C17.3928 34.1764 17.387 34.2395 17.3773 34.3021C17.3677 34.365 17.3538 34.4265 17.3363 34.4871C17.3185 34.5477 17.297 34.6066 17.2717 34.6638C17.2463 34.7213 17.2175 34.7762 17.1851 34.8292C17.1526 34.8821 17.1171 34.9322 17.0781 34.9797C17.0391 35.0269 16.9975 35.0713 16.9528 35.1123C16.9083 35.1533 16.8612 35.1909 16.8118 35.2247C16.7624 35.2586 16.7108 35.2885 16.6575 35.3144C16.6041 35.3405 16.5494 35.3622 16.4932 35.3798C15.297 35.867 14.1686 35.4786 13.0574 35.0036L12.139 34.6214C11.9671 34.8995 11.8254 35.1946 11.7134 35.5067C11.6014 35.8186 11.5222 36.1402 11.4756 36.4714C11.3053 37.0881 11.4246 37.3593 11.9632 37.5938C12.5055 37.8123 13.0574 37.9973 13.6187 38.1487C13.9363 38.2474 14.2651 38.3092 14.6449 38.3954C14.6449 38.9503 14.6959 39.4438 14.7017 39.9372C14.7017 40.2639 14.7809 40.5539 15.1042 40.5539C15.4045 40.6324 15.7087 40.6615 16.0171 40.6404C16.3253 40.6193 16.624 40.5493 16.9128 40.4304Z" fill="#06295B"></path></g><path d="M32.5982 32.9686V29.0756C32.9663 29.0101 33.33 28.923 33.6891 28.8143C34.0485 28.7053 34.4013 28.5755 34.7475 28.4247C35.0936 28.2739 35.4313 28.1029 35.7602 27.9117C36.0894 27.7208 36.4078 27.5106 36.7155 27.2816C37.0235 27.0527 37.3187 26.8058 37.6018 26.5417C37.8849 26.2772 38.1536 25.9969 38.4084 25.7008C38.6631 25.4043 38.9021 25.0938 39.1256 24.7691C39.349 24.4441 39.5555 24.107 39.745 23.7577C39.8892 23.506 40.0233 23.2482 40.1476 22.984C40.2717 22.7199 40.3854 22.4508 40.4887 22.1763C40.5918 21.9018 40.6843 21.6229 40.766 21.34C40.8474 21.0572 40.9179 20.7708 40.9772 20.4816C41.0366 20.192 41.0846 19.9002 41.1211 19.6064C41.158 19.3125 41.1832 19.0175 41.1967 18.7214C41.2105 18.4252 41.2129 18.1288 41.2033 17.8326C41.194 17.5362 41.1734 17.2406 41.141 16.9462C41.1137 16.6514 41.0758 16.3585 41.0273 16.0672C40.9788 15.7759 40.9197 15.487 40.8503 15.2009C40.7808 14.9146 40.701 14.6317 40.6109 14.3523C40.5208 14.0728 40.4209 13.7977 40.3109 13.5269C40.2009 13.2562 40.0811 12.9903 39.9517 12.7299C39.8224 12.4692 39.684 12.2146 39.5361 11.966C39.3882 11.7174 39.2319 11.4755 39.0665 11.2402C38.9011 11.0052 38.7275 10.7773 38.5454 10.557C38.3636 10.3367 38.1741 10.1248 37.9766 9.92059C37.7794 9.71672 37.575 9.52149 37.3635 9.33492C37.152 9.14863 36.9341 8.97157 36.7099 8.80374C36.4854 8.63591 36.2554 8.47817 36.0197 8.33023C35.7838 8.1823 35.5432 8.04475 35.2975 7.91729C35.0515 7.79012 34.8015 7.67362 34.5474 7.56778C34.2932 7.46195 34.0353 7.36708 33.7742 7.28345C33.5131 7.19982 33.2494 7.12744 32.983 7.0666C29.2315 6.18534 23.9345 7.69149 21.3264 13.9405L18 13.1469C18.9709 8.6287 23.9806 3.0545 30.8287 3.00462C31.0492 2.99856 31.2695 2.99856 31.49 3.00404C31.7105 3.00952 31.9308 3.02077 32.1508 3.03778C32.3708 3.05479 32.5902 3.07729 32.8092 3.10583C33.0281 3.13409 33.2465 3.16841 33.4638 3.20792C33.6814 3.24771 33.8977 3.29328 34.1132 3.34432C34.3287 3.39536 34.5431 3.45188 34.756 3.51417C34.9691 3.57617 35.1806 3.64393 35.3905 3.71718C35.6007 3.79014 35.8087 3.86886 36.0155 3.95278C36.222 4.03698 36.4266 4.12638 36.6293 4.22096C36.8318 4.31555 37.0322 4.41561 37.2305 4.52058C37.4287 4.62583 37.6246 4.73599 37.8178 4.85105C38.0113 4.9664 38.2021 5.08665 38.3901 5.21209C38.5783 5.33724 38.7635 5.4673 38.9459 5.60197C39.1282 5.73692 39.3077 5.87649 39.4839 6.02068C39.6602 6.16486 39.833 6.31337 40.0026 6.46679C40.1725 6.61991 40.3387 6.77736 40.5015 6.93914C40.6642 7.1012 40.8235 7.26701 40.9788 7.43715C41.1344 7.60729 41.286 7.78147 41.4339 7.95939C41.5815 8.13731 41.7255 8.31928 41.8651 8.5047C42.0051 8.69012 42.1408 8.87929 42.2723 9.07163C42.4037 9.26426 42.531 9.46007 42.6539 9.65933C42.7767 9.8586 42.8951 10.0607 43.0091 10.2661C43.1231 10.4714 43.2325 10.6796 43.3375 10.8907C43.4422 11.1018 43.5424 11.3154 43.6378 11.5317C43.7332 11.748 43.8239 11.9666 43.9097 12.1875C43.9956 12.4084 44.0765 12.6316 44.1525 12.8568C44.2286 13.082 44.2996 13.3089 44.3656 13.5376C44.4316 13.7666 44.4926 13.997 44.5485 14.2291C44.6044 14.4613 44.6551 14.6946 44.7009 14.9293C44.7465 15.164 44.7868 15.3996 44.822 15.6364C44.8573 15.8731 44.8875 16.1107 44.9122 16.3492C44.9371 16.5874 44.9567 16.8265 44.971 17.0658C44.9853 17.3052 44.9943 17.5448 44.998 17.7844C45.0018 18.0244 45.0002 18.2643 44.9935 18.5039C44.9866 18.7439 44.9747 18.9832 44.9575 19.2223C44.94 19.4613 44.9175 19.7001 44.8896 19.938C44.8618 20.1759 44.8289 20.4129 44.7905 20.6494C44.7523 20.8856 44.7089 21.1206 44.6604 21.3548C44.6119 21.5886 44.5581 21.821 44.4992 22.0523C44.4404 22.2836 44.3768 22.5131 44.3079 22.7409C44.2389 22.9688 44.165 23.1948 44.086 23.4189C44.0073 23.6427 43.9235 23.8647 43.835 24.0845C43.7465 24.3039 43.6529 24.5213 43.5548 24.7362C43.4568 24.9507 43.3539 25.163 43.2463 25.3723C43.139 25.582 43.0269 25.7884 42.9102 25.992C42.7936 26.1956 42.6728 26.396 42.5474 26.5936C42.422 26.7908 42.2924 26.9849 42.1583 27.1755C42.0244 27.3658 41.8863 27.553 41.7443 27.7364C41.6022 27.9198 41.4562 28.0994 41.3059 28.2751C41.1559 28.451 41.0021 28.6228 40.8444 28.7907C40.687 28.9582 40.5258 29.122 40.361 29.2812C40.1961 29.4406 40.0278 29.5958 39.8563 29.7463C39.6846 29.8971 39.5099 30.0431 39.3318 30.1846C39.1537 30.3262 38.9726 30.4632 38.7887 30.5953C38.6045 30.7274 38.4176 30.8545 38.2281 30.9771C38.0383 31.0994 37.8462 31.2167 37.6514 31.3292C37.4566 31.4416 37.2594 31.5489 37.0598 31.651C36.8602 31.7531 36.6585 31.85 36.4549 31.9417C36.2511 32.0334 36.0454 32.1196 35.8376 32.2006C35.6301 32.2817 35.421 32.3569 35.21 32.427C34.999 32.4971 34.7867 32.5617 34.5728 32.6208C34.3592 32.6796 34.1442 32.733 33.9282 32.7808C33.7119 32.8287 33.4951 32.8708 33.277 32.9074C33.0591 32.9441 32.8404 32.9749 32.6212 33L32.5982 32.9686Z" fill="#06295B"></path><path d="M28.9222 18.9042C29.0475 16.8975 29.1681 14.9412 29.3035 12.9648C29.3435 12.3428 29.5894 11.9968 30.031 11.8764C30.0678 11.8644 30.1053 11.8544 30.1433 11.8468C30.1813 11.8391 30.2195 11.8336 30.2581 11.8303C30.2968 11.8271 30.3354 11.8259 30.3741 11.8271C30.4127 11.8285 30.4514 11.8317 30.4896 11.8375C30.528 11.8431 30.5657 11.8509 30.6032 11.8611C30.6407 11.8711 30.6773 11.8833 30.7134 11.8977C30.7493 11.9121 30.7845 11.9283 30.8185 11.9465C30.8526 11.9651 30.8857 11.9852 30.9174 12.0074C30.9491 12.0296 30.9794 12.0535 31.0086 12.0792C31.0375 12.1049 31.0648 12.1322 31.0907 12.1611C31.1164 12.1901 31.1405 12.2202 31.163 12.2519C31.1852 12.2836 31.2056 12.3164 31.2241 12.3505C31.2426 12.3845 31.2593 12.4195 31.2736 12.4553C31.2882 12.4912 31.3005 12.528 31.3107 12.5653C31.3208 12.6028 31.3289 12.6405 31.3347 12.6787C31.3405 12.7171 31.3442 12.7556 31.3456 12.7942C31.441 13.8327 31.5111 14.8759 31.5815 15.9195C31.6366 16.732 31.6968 17.5396 31.7218 18.3472C31.7366 18.5079 31.7785 18.6609 31.8475 18.8067C31.9164 18.9526 32.0083 19.082 32.1234 19.1949C32.8609 20.0778 33.6285 20.9558 34.3259 21.8537C34.4195 21.9685 34.4963 22.0938 34.5567 22.229C34.6171 22.3641 34.6588 22.5049 34.6822 22.6512C34.684 22.6718 34.685 22.6924 34.6854 22.713C34.6859 22.7336 34.6857 22.7542 34.6847 22.7748C34.6838 22.7954 34.6822 22.8158 34.6799 22.8364C34.6776 22.8567 34.6748 22.8771 34.6711 22.8975C34.6676 22.9178 34.6632 22.938 34.6583 22.9579C34.6535 22.978 34.6479 22.9977 34.6417 23.0174C34.6357 23.0371 34.6287 23.0565 34.6213 23.0757C34.6139 23.0949 34.6058 23.1139 34.597 23.1324C34.5882 23.1512 34.5789 23.1697 34.569 23.1877C34.5593 23.2058 34.5486 23.2234 34.5377 23.2408C34.5266 23.2583 34.5151 23.2752 34.5028 23.2919C34.4907 23.3086 34.478 23.3248 34.4648 23.3405C34.4516 23.3563 34.4377 23.3718 34.4236 23.3866C34.4093 23.4016 34.3947 23.416 34.3794 23.4299C34.3644 23.444 34.3486 23.4574 34.3326 23.4704C34.3167 23.4831 34.3002 23.4956 34.2833 23.5074C34.2664 23.5192 34.2493 23.5306 34.2317 23.5415C34.2141 23.5521 34.1961 23.5623 34.1778 23.5718C34.1597 23.5815 34.141 23.5903 34.1222 23.5989C34.1035 23.6072 34.0843 23.6148 34.0651 23.622C34.0456 23.6292 34.0262 23.6357 34.0063 23.6415C33.9866 23.6472 33.9667 23.6526 33.9465 23.657C33.9264 23.6616 33.9063 23.6655 33.8859 23.6688C33.8655 23.6718 33.8449 23.6746 33.8245 23.6764C33.8039 23.6783 33.7833 23.6794 33.7627 23.6801C33.7421 23.6806 33.7215 23.6803 33.7009 23.6796C33.6803 23.679 33.66 23.6773 33.6394 23.6752C33.6188 23.6732 33.5984 23.6704 33.578 23.6669C33.5579 23.6634 33.5375 23.6593 33.5176 23.6546C33.4975 23.6498 33.4776 23.6442 33.4579 23.6382C33.4382 23.6322 33.4188 23.6255 33.3995 23.6181C33.3803 23.6109 33.3614 23.6028 33.3426 23.5942C33.1482 23.5053 32.9708 23.3898 32.8107 23.2482C31.6667 22.275 30.5278 21.3118 29.3938 20.3588C28.9773 20.0127 28.8921 19.6665 28.9222 18.9042Z" fill="#06295B"></path></svg>